<svg width="36" height="36" viewBox="0 0 36 36" fill="none" xmlns="http://www.w3.org/2000/svg">
<path d="M3.1985 20.5417C1.55389 10.375 10.375 1.55389 20.5417 3.1985C26.6716 4.24507 31.7549 9.32841 32.8015 15.4583C34.4461 25.625 25.625 34.4461 15.4583 32.8015C9.1789 31.7549 4.24507 26.6716 3.1985 20.5417ZM17.8505 28.4657H18.299C21.8873 28.3162 24.8775 26.5221 26.8211 23.8309C25.326 23.0833 23.8309 22.4853 22.1863 21.8873L21.4387 21.5882C21.1397 21.4387 20.8407 20.9902 20.8407 20.6912C20.6912 19.9436 20.6912 19.1961 21.1397 18.598C22.0368 17.5515 23.0833 16.2059 23.0833 12.7671V12.1691C23.0833 9.62743 20.8407 7.53429 18.1495 7.53429H17.402C14.7108 7.83331 12.9167 10.076 12.9167 12.7671C12.9167 16.2059 13.8137 17.5515 14.8603 18.598C15.3088 19.1961 15.3088 19.9436 15.1593 20.6912C15.1593 21.1397 14.8603 21.4387 14.5613 21.5882L13.8137 21.8873C13.4855 22.0186 13.15 22.1499 12.8105 22.2827C11.6037 22.7551 10.3458 23.2475 9.1789 23.8309C10.973 26.6716 14.2622 28.4657 17.8505 28.4657Z" fill="#252A31"/>
</svg>
