<svg xmlns="http://www.w3.org/2000/svg" xmlns:xlink="http://www.w3.org/1999/xlink" viewBox="0 0 500 500"><defs><clipPath id="freepik--clip-path--inject-1--inject-7"><path d="M213.93,347.17a25.86,25.86,0,0,1-5.36,11.51c-4.55,5.63-10.71,16.61-11,27.05s-12.33,39.33-11,41.47,13.12,5.09,17.67,5.09c2.39,0,6.35.92,7.93-1.41.09-.13-9.35-5-10-5.47s-5.91-4.17-5.74-4.64c0,0,12.34-33.44,18.5-42s10.71-15,12.58-20.35S231.06,348,231.06,348Z" style="fill:#fff;stroke:#2e353a;stroke-linecap:round;stroke-linejoin:round"></path></clipPath><clipPath id="freepik--clip-path-2--inject-1--inject-7"><path d="M252.68,349.36a25.87,25.87,0,0,1,5,11.68c1.13,7.15,5.17,19.07,12.76,26.26s21,37.43,23.48,37.86c2.91.52,7.35-3.2,9.51-4.71,2.75-1.92,9.06-5.84,10-9.23,1.13-3.9-2.88-1.94-4.57-.68-2.19,1.63-13.12,3-13.12,3S279.13,380,276.89,369.7s-4-18-6.71-23-5.43-9.57-5.43-9.57Z" style="fill:#fff;stroke:#2e353a;stroke-linecap:round;stroke-linejoin:round"></path></clipPath><clipPath id="freepik--clip-path-3--inject-1--inject-7"><path d="M214.29,293.73,205,345a70.74,70.74,0,0,0,13.31,6.66c7.32,2.66,20,2,20,2l5-24.95,2,23.29s9.65,1,16.64-.33,18.3-8.66,18.3-8.66l-22-40.92-5-9.65-38.93-1Z" style="fill:#fff;stroke:#2e353a;stroke-miterlimit:10"></path></clipPath><clipPath id="freepik--clip-path-4--inject-1--inject-7"><path d="M233,175s-3.33-4-5.32-2.33-1.34,6.33,1,8.66,5.33.33,5.33.33,1.33,4.32,3.66,6.32,10.31,3.33,13,1.33,1.66-9.32,1.66-9.32,4.66-2.33,4.33-4-3.67-3-3.67-4.32a18.49,18.49,0,0,0-.33-3V166l-15.3,3.33S235.35,177,233,175Z" style="fill:#fff;stroke:#2e353a;stroke-linecap:round;stroke-linejoin:round"></path></clipPath></defs><g id="freepik--Shadow--inject-1--inject-7"><ellipse cx="245.56" cy="432" rx="76.5" ry="8" style="fill:#ADF802"></ellipse><ellipse cx="245.56" cy="432" rx="76.5" ry="8" style="fill:#fff;opacity:0.5"></ellipse></g><g id="freepik--Location--inject-1--inject-7"><path d="M250,57.63a129,129,0,0,0-129,129c0,64.35,119,216,119,216h10s129-144.76,129-216A129,129,0,0,0,250,57.63Zm0,192a63,63,0,1,1,63-63A63,63,0,0,1,250,249.63Z" style="fill:#2e353a;stroke:#2e353a;stroke-linecap:round;stroke-linejoin:round"></path><path d="M240,57.63a129,129,0,0,0-129,129c0,71.24,129,216,129,216s129-144.76,129-216A129,129,0,0,0,240,57.63Zm0,192a63,63,0,1,1,63-63A63,63,0,0,1,240,249.63Z" style="fill:#ADF802;stroke:#2e353a;stroke-linecap:round;stroke-linejoin:round"></path></g></svg>